<?xml version="1.0" encoding="UTF-8" standalone="no"?>
<!-- Created with Inkscape (http://www.inkscape.org/) -->

<svg
   xmlns:dc="http://purl.org/dc/elements/1.1/"
   xmlns:cc="http://creativecommons.org/ns#"
   xmlns:rdf="http://www.w3.org/1999/02/22-rdf-syntax-ns#"
   xmlns:svg="http://www.w3.org/2000/svg"
   xmlns="http://www.w3.org/2000/svg"
   xmlns:sodipodi="http://sodipodi.sourceforge.net/DTD/sodipodi-0.dtd"
   xmlns:inkscape="http://www.inkscape.org/namespaces/inkscape"
   width="41.323551mm"
   height="18.625378mm"
   viewBox="0 0 41.323551 18.625378"
   version="1.1"
   id="svg10905"
   inkscape:version="0.92.4 (33fec40, 2019-01-16)"
   sodipodi:docname="freepix-cloud11.svg">
  <defs
     id="defs10899" />
  <sodipodi:namedview
     id="base"
     pagecolor="#ffffff"
     bordercolor="#666666"
     borderopacity="1.0"
     inkscape:pageopacity="0.0"
     inkscape:pageshadow="2"
     inkscape:zoom="0.35"
     inkscape:cx="898.09175"
     inkscape:cy="-530.51672"
     inkscape:document-units="mm"
     inkscape:current-layer="layer1"
     showgrid="false"
     inkscape:window-width="1850"
     inkscape:window-height="1016"
     inkscape:window-x="70"
     inkscape:window-y="27"
     inkscape:window-maximized="1" />
  <metadata
     id="metadata10902">
    <rdf:RDF>
      <cc:Work
         rdf:about="">
        <dc:format>image/svg+xml</dc:format>
        <dc:type
           rdf:resource="http://purl.org/dc/dcmitype/StillImage" />
        <dc:title></dc:title>
      </cc:Work>
    </rdf:RDF>
  </metadata>
  <g
     inkscape:label="Layer 1"
     inkscape:groupmode="layer"
     id="layer1"
     transform="translate(257.27487,10.157927)">
    <g
       id="g94"
       transform="matrix(0.35277777,0,0,-0.35277777,-217.91369,-0.7755983)">
      <path
         d="m 0,0 c -3.688,1.444 -9.843,0.564 -10.736,-3.295 0.577,2.032 -0.051,4.359 -1.573,5.825 -1.522,1.465 -3.871,2.005 -5.88,1.352 0.442,2.606 -1.848,4.619 -4.48,4.862 0.943,1.623 1.902,3.293 2.213,5.145 0.31,1.852 -0.164,3.955 -1.652,5.101 -1.487,1.145 -3.53,0.724 -4.307,-0.985 -4.43,7.411 -14.682,10.677 -22.583,7.194 -7.901,-3.484 -12.506,-12.676 -10.022,-20.946 -2.385,-0.015 -3.806,-2.67 -2.898,-4.876 -1.51,0.653 -3.452,0.06 -4.34,-1.325 -0.533,-0.832 -0.427,-1.987 0.002,-3.016 -1.28,1.169 -3.211,1.696 -4.947,1.338 -2.453,-0.506 -4.435,-2.407 -5.644,-4.601 -1.209,-2.193 -1.565,-4.129 -2.102,-6.576 -5.188,2.613 -11.443,0.92 -16.856,-1.184 -5.414,-2.105 -9.962,-3.87 -15.77,-3.87 24.652,-4.176 24.652,-4.176 30.054,-2.003 11.438,-5.512 25.761,-5.54 37.766,-1.409 1.4,-2.273 4.481,-2.887 7.128,-2.546 2.647,0.342 5.175,1.403 7.837,1.604 2.109,0.16 4.23,-0.228 6.34,-0.082 2.111,0.145 3.961,0.631 4.951,2.5 4.138,-2.236 9.156,-2.786 13.68,-1.498 1.501,0.427 3.036,1.12 3.879,2.434 0.431,0.672 0.587,1.537 0.456,2.32 2.544,2.395 4.764,5.626 5.018,8.923 C 5.839,-5.665 3.688,-1.445 0,0"
         style="fill:#ffffff;fill-opacity:1;fill-rule:nonzero;stroke:none"
         id="path96"
         inkscape:connector-curvature="0" />
    </g>
  </g>
</svg>
