<?xml version="1.0" encoding="UTF-8" standalone="no"?>
<!-- Created with Inkscape (http://www.inkscape.org/) -->

<svg
   xmlns:dc="http://purl.org/dc/elements/1.1/"
   xmlns:cc="http://creativecommons.org/ns#"
   xmlns:rdf="http://www.w3.org/1999/02/22-rdf-syntax-ns#"
   xmlns:svg="http://www.w3.org/2000/svg"
   xmlns="http://www.w3.org/2000/svg"
   xmlns:sodipodi="http://sodipodi.sourceforge.net/DTD/sodipodi-0.dtd"
   xmlns:inkscape="http://www.inkscape.org/namespaces/inkscape"
   width="96.087318mm"
   height="42.008133mm"
   viewBox="0 0 96.087318 42.008133"
   version="1.1"
   id="svg11500"
   inkscape:version="0.92.4 (33fec40, 2019-01-16)"
   sodipodi:docname="freepix-cloud12.svg">
  <defs
     id="defs11494" />
  <sodipodi:namedview
     id="base"
     pagecolor="#ffffff"
     bordercolor="#666666"
     borderopacity="1.0"
     inkscape:pageopacity="0.0"
     inkscape:pageshadow="2"
     inkscape:zoom="0.35"
     inkscape:cx="890.15374"
     inkscape:cy="-583.47169"
     inkscape:document-units="mm"
     inkscape:current-layer="layer1"
     showgrid="false"
     inkscape:window-width="1850"
     inkscape:window-height="1016"
     inkscape:window-x="70"
     inkscape:window-y="27"
     inkscape:window-maximized="1" />
  <metadata
     id="metadata11497">
    <rdf:RDF>
      <cc:Work
         rdf:about="">
        <dc:format>image/svg+xml</dc:format>
        <dc:type
           rdf:resource="http://purl.org/dc/dcmitype/StillImage" />
        <dc:title></dc:title>
      </cc:Work>
    </rdf:RDF>
  </metadata>
  <g
     inkscape:label="Layer 1"
     inkscape:groupmode="layer"
     id="layer1"
     transform="translate(255.17461,47.551686)">
    <g
       id="g90"
       transform="matrix(0.35277777,0,0,-0.35277777,-159.47023,-10.608021)">
      <path
         d="m 0,0 c 0.935,2.447 1.267,5.071 0.739,7.517 -1.223,5.661 -7.769,10.036 -13.494,10.92 1.859,2.523 1.344,6.476 -1.098,8.439 -2.442,1.963 -6.039,3.298 -8.103,0.941 1.56,4.503 3.111,9.519 1.232,13.899 -1.878,4.38 -7.329,8.454 -9.698,4.319 3.426,9.911 4.785,20.738 2.413,30.953 -2.371,10.215 -8.769,19.723 -18.081,24.546 -9.312,4.822 -21.519,4.291 -29.601,-2.392 -8.081,-6.682 -8.593,-19.004 -2.735,-27.701 -4.739,1.26 -10.201,-1.27 -12.305,-5.7 -2.105,-4.43 -0.615,-10.261 3.356,-13.139 -2.25,0.331 -4.639,-1.046 -5.48,-3.159 -0.637,-1.601 -0.06,-4.513 1.066,-6.4 -6.994,7.515 -18.784,10.269 -28.331,6.39 -10.128,-4.115 -15.371,-12.589 -14.238,-23.463 -6.849,6.854 -18.462,8.304 -26.785,3.343 -8.323,-4.96 -11.623,-16.765 -8.853,-26.05 -2.131,2.909 -7.366,1.792 -9.358,-1.215 -0.353,1.506 -1.979,2.593 -3.506,2.343 -1.527,-0.249 -1.586,-1.8 -1.443,-3.341 -1.652,3.597 -5.639,5.979 -9.589,5.73 -3.95,-0.249 -8.794,-2.505 -9.982,-6.281 -21.481,5.772 -45.171,-8.428 -67.414,-8.428 h 19.215 c 6.841,-3.016 13.866,-5.83 21.296,-6.341 8.123,-0.558 16.172,1.681 23.855,4.375 1.201,-1.834 4.085,-2.642 6.259,-2.363 2.174,0.279 4.124,1.879 4.823,3.957 4.028,-3.883 10.488,-4.989 15.578,-2.665 14.021,-5.036 29.822,-4.356 43.489,1.573 10.496,-5.363 23.817,-5.49 34.615,-0.763 4.464,-4.61 12.591,-3.534 17.176,0.956 9.278,-1.563 18.911,-3.574 28.241,-2.36 6.053,-2.697 14.938,-0.999 20.559,2.509 5.817,-4.232 14.033,-4.707 20.603,-1.778 3.002,-1.269 6.76,-1.869 9.917,-1.058 3.157,0.811 6.002,3.284 6.62,6.485 C 1.316,-3.546 0.896,-1.671 0,0"
         style="fill:#ffffff;fill-opacity:1;fill-rule:nonzero;stroke:none"
         id="path92"
         inkscape:connector-curvature="0" />
    </g>
  </g>
</svg>
