<?xml version="1.0" encoding="UTF-8" standalone="no"?>
<!-- Created with Inkscape (http://www.inkscape.org/) -->

<svg
   xmlns:dc="http://purl.org/dc/elements/1.1/"
   xmlns:cc="http://creativecommons.org/ns#"
   xmlns:rdf="http://www.w3.org/1999/02/22-rdf-syntax-ns#"
   xmlns:svg="http://www.w3.org/2000/svg"
   xmlns="http://www.w3.org/2000/svg"
   xmlns:sodipodi="http://sodipodi.sourceforge.net/DTD/sodipodi-0.dtd"
   xmlns:inkscape="http://www.inkscape.org/namespaces/inkscape"
   width="191.2059mm"
   height="29.669121mm"
   viewBox="0 0 191.2059 29.669121"
   version="1.1"
   id="svg5981"
   inkscape:version="0.92.4 (33fec40, 2019-01-16)"
   sodipodi:docname="freepix-cloud3.svg">
  <defs
     id="defs5975" />
  <sodipodi:namedview
     id="base"
     pagecolor="#ffffff"
     bordercolor="#666666"
     borderopacity="1.0"
     inkscape:pageopacity="0.0"
     inkscape:pageshadow="2"
     inkscape:zoom="0.35"
     inkscape:cx="1241.334"
     inkscape:cy="-669.64666"
     inkscape:document-units="mm"
     inkscape:current-layer="layer1"
     showgrid="false"
     inkscape:window-width="1850"
     inkscape:window-height="1016"
     inkscape:window-x="70"
     inkscape:window-y="27"
     inkscape:window-maximized="1" />
  <metadata
     id="metadata5978">
    <rdf:RDF>
      <cc:Work
         rdf:about="">
        <dc:format>image/svg+xml</dc:format>
        <dc:type
           rdf:resource="http://purl.org/dc/dcmitype/StillImage" />
        <dc:title></dc:title>
      </cc:Work>
    </rdf:RDF>
  </metadata>
  <g
     inkscape:label="Layer 1"
     inkscape:groupmode="layer"
     id="layer1"
     transform="translate(348.09105,58.013133)">
    <g
       id="g114"
       transform="matrix(0.35277777,0,0,-0.35277777,-165.78855,-34.162032)">
      <path
         d="m 0,0 c -7.684,4.296 -15.587,8.669 -24.296,9.956 -8.71,1.286 -18.608,0.225 -23.782,-6.898 -11.795,7.297 -28.248,7.786 -41.027,2.396 -2.44,7.274 -13.158,10.807 -19.896,7.138 0.737,7.94 -4.158,16.083 -11.516,19.156 -7.358,3.074 -16.591,0.832 -21.72,-5.274 -1.828,2.714 -5.461,4.066 -8.618,3.208 -3.157,-0.858 -4.649,-1.914 -4.852,-5.179 -4.52,9.767 -12.508,18.155 -22.596,21.907 -10.088,3.751 -22.239,2.367 -30.463,-4.576 -8.224,-6.942 -12.178,-18.942 -7.369,-28.57 -6.705,8.17 -17.44,12.86 -27.991,12.229 -10.55,-0.631 -20.897,-6.966 -26.581,-15.878 -4.586,5.608 -13.703,6.772 -19.551,2.497 -2.376,5.354 -10.161,6.902 -14.241,2.699 2.078,6.343 0.411,13.765 -4.181,18.61 -4.591,4.844 -10.138,5.952 -16.583,4.218 0.634,3.812 1.266,7.733 0.465,11.514 -0.802,3.781 -3.376,7.445 -7.13,8.368 -3.753,0.924 -5.886,-1.591 -5.67,-5.45 -5.924,9.935 -17.601,16.141 -29.15,15.492 -11.549,-0.649 -22.458,-8.125 -27.231,-18.661 -3.498,-7.721 -3.336,-16.537 -0.201,-24.285 -2.001,2.945 -4.339,5.597 -7.308,7.539 -5.509,3.604 -13.824,3.798 -17.952,-1.329 -2.77,-3.441 -2.989,-8.398 -1.665,-12.613 1.323,-4.214 3.377,-8.312 5.986,-11.877 -1.928,2.964 -5.556,4.731 -9.078,4.423 -3.522,-0.309 -6.656,-2.369 -8.039,-5.622 -4.103,3.094 -9.812,2.456 -14.89,1.671 -18.523,-2.861 -36.336,-8.18 -54.693,-10.311 h -0.231 c 0.049,-0.003 0.097,-0.006 0.145,-0.01 -4.906,-0.567 -9.849,-0.918 -14.858,-0.918 h 27.616 c 51.05,-3.479 102.279,-4.314 153.414,-2.487 16.392,0.586 32.778,-4.363 48.614,-0.094 37.666,-12.801 79.521,-12.69 117.002,0.641 24.498,-5.729 50.02,-7.214 75.045,-4.617 16.206,1.683 32.615,-3.472 47.018,4.144 8.786,-3.435 19.085,-3.24 27.366,1.277 5.585,-3.641 19.259,1.136 45.926,1.136 C 15.824,-1.787 8.535,-4.772 0,0"
         style="fill:#ffffff;fill-opacity:1;fill-rule:nonzero;stroke:none"
         id="path116"
         inkscape:connector-curvature="0" />
    </g>
  </g>
</svg>
