<?xml version="1.0" encoding="UTF-8" standalone="no"?>
<!-- Created with Inkscape (http://www.inkscape.org/) -->

<svg
   xmlns:dc="http://purl.org/dc/elements/1.1/"
   xmlns:cc="http://creativecommons.org/ns#"
   xmlns:rdf="http://www.w3.org/1999/02/22-rdf-syntax-ns#"
   xmlns:svg="http://www.w3.org/2000/svg"
   xmlns="http://www.w3.org/2000/svg"
   xmlns:sodipodi="http://sodipodi.sourceforge.net/DTD/sodipodi-0.dtd"
   xmlns:inkscape="http://www.inkscape.org/namespaces/inkscape"
   width="162.87186mm"
   height="39.968655mm"
   viewBox="0 0 162.87186 39.968655"
   version="1.1"
   id="svg6747"
   inkscape:version="0.92.4 (33fec40, 2019-01-16)"
   sodipodi:docname="freepix-cloud4.svg">
  <defs
     id="defs6741" />
  <sodipodi:namedview
     id="base"
     pagecolor="#ffffff"
     bordercolor="#666666"
     borderopacity="1.0"
     inkscape:pageopacity="0.0"
     inkscape:pageshadow="2"
     inkscape:zoom="0.35"
     inkscape:cx="167.78933"
     inkscape:cy="-370.18297"
     inkscape:document-units="mm"
     inkscape:current-layer="layer1"
     showgrid="false"
     inkscape:window-width="1850"
     inkscape:window-height="1016"
     inkscape:window-x="70"
     inkscape:window-y="27"
     inkscape:window-maximized="1" />
  <metadata
     id="metadata6744">
    <rdf:RDF>
      <cc:Work
         rdf:about="">
        <dc:format>image/svg+xml</dc:format>
        <dc:type
           rdf:resource="http://purl.org/dc/dcmitype/StillImage" />
        <dc:title></dc:title>
      </cc:Work>
    </rdf:RDF>
  </metadata>
  <g
     inkscape:label="Layer 1"
     inkscape:groupmode="layer"
     id="layer1"
     transform="translate(64.049021,-10.920435)">
    <g
       id="g106"
       transform="matrix(0.35277777,0,0,-0.35277777,73.235859,46.337279)">
      <path
         d="m 0,0 c -5.883,0.951 -25.701,5.363 -37.477,11.452 -3.302,1.707 -8.931,5.737 -12.576,6.462 -0.521,0.104 -1.075,0.178 -1.642,0.235 1.505,3.995 2.187,8.301 1.909,12.562 -0.228,3.515 -1.2,7.198 -3.78,9.596 -2.581,2.399 -6.581,2.751 -8.988,0.179 1.753,8.847 -3.626,18.569 -12.053,21.783 -8.426,3.215 -18.657,-1.58 -23.242,-9.347 1.621,4.207 2.807,8.857 1.563,13.19 -1.245,4.333 -5.697,8.005 -10.079,6.946 -1.276,2.491 -2.72,5.15 -5.251,6.347 -2.53,1.195 -6.951,0.351 -7.075,-2.445 -0.126,2.862 -2.292,5.516 -5.072,6.211 -2.779,0.696 -5.081,-1.181 -6.54,-3.646 -1.781,5.444 -4.4,10.738 -8.487,14.751 -4.088,4.013 -9.803,6.613 -15.503,6.039 -5.699,-0.574 -11.118,-4.76 -12.232,-10.378 -1.658,0.888 -3.792,0.809 -5.379,-0.2 -1.588,-1.009 -1.226,-2.717 -1.125,-4.596 -9.144,1.591 -19.014,-2.002 -24.996,-9.099 -5.981,-7.097 -7.713,-17.54 -4.597,-26.283 -3.098,2.219 -7.327,2.76 -10.884,1.393 -3.557,-1.367 -6.335,-4.601 -7.15,-8.324 -0.55,2.228 -2.86,3.877 -5.145,3.674 -2.286,-0.203 -3.582,-0.782 -3.731,-3.072 -8.583,13.008 -26.406,19.047 -41.128,13.935 -14.723,-5.111 -24.373,-20.925 -23.048,-36.454 -5.339,3.378 -12.047,4.515 -18.2,3.084 -6.153,-1.43 -11.672,-5.409 -14.973,-10.795 -1.791,-2.923 -2.909,-6.745 -1.194,-9.714 -3.798,2.524 -9.702,1.802 -12.848,-1.499 -7.861,3.189 -9.214,1.179 -16.951,-2.301 -11.598,-5.217 -22.797,-5.217 -31.28,-5.217 h 25.182 c 27.5,0 39.879,-7.163 57.055,-2.711 23.622,-6.54 48.393,-6.078 71.966,0.636 7.87,-4.09 17.039,-3.884 25.073,-0.125 19.197,-4.718 39.39,-4.205 58.394,1.241 4.151,-2.154 9.363,-1.703 13.566,0.349 13.59,-4.837 28.433,-4.817 42.467,-1.477 7.777,-3.873 16.776,-3.438 24.569,0.404 12.975,-3.786 26.799,-3.602 39.879,-0.196 5.833,-1.736 12.775,-1.607 18.59,0.187 2.87,0.886 5.983,1.4 9.401,1.692 H 72.53 C 48.327,-4.564 24.089,-2.837 0,0"
         style="fill:#ffffff;fill-opacity:1;fill-rule:nonzero;stroke:none"
         id="path108"
         inkscape:connector-curvature="0" />
    </g>
  </g>
</svg>
