<?xml version="1.0" encoding="UTF-8" standalone="no"?>
<!-- Created with Inkscape (http://www.inkscape.org/) -->

<svg
   xmlns:dc="http://purl.org/dc/elements/1.1/"
   xmlns:cc="http://creativecommons.org/ns#"
   xmlns:rdf="http://www.w3.org/1999/02/22-rdf-syntax-ns#"
   xmlns:svg="http://www.w3.org/2000/svg"
   xmlns="http://www.w3.org/2000/svg"
   xmlns:sodipodi="http://sodipodi.sourceforge.net/DTD/sodipodi-0.dtd"
   xmlns:inkscape="http://www.inkscape.org/namespaces/inkscape"
   width="55.802967mm"
   height="13.280619mm"
   viewBox="0 0 55.802967 13.280619"
   version="1.1"
   id="svg12095"
   inkscape:version="0.92.4 (33fec40, 2019-01-16)"
   sodipodi:docname="freepix-cloud13.svg">
  <defs
     id="defs12089" />
  <sodipodi:namedview
     id="base"
     pagecolor="#ffffff"
     bordercolor="#666666"
     borderopacity="1.0"
     inkscape:pageopacity="0.0"
     inkscape:pageshadow="2"
     inkscape:zoom="0.35"
     inkscape:cx="708.31157"
     inkscape:cy="-89.188493"
     inkscape:document-units="mm"
     inkscape:current-layer="layer1"
     showgrid="false"
     inkscape:window-width="1850"
     inkscape:window-height="1016"
     inkscape:window-x="70"
     inkscape:window-y="27"
     inkscape:window-maximized="1" />
  <metadata
     id="metadata12092">
    <rdf:RDF>
      <cc:Work
         rdf:about="">
        <dc:format>image/svg+xml</dc:format>
        <dc:type
           rdf:resource="http://purl.org/dc/dcmitype/StillImage" />
        <dc:title></dc:title>
      </cc:Work>
    </rdf:RDF>
  </metadata>
  <g
     inkscape:label="Layer 1"
     inkscape:groupmode="layer"
     id="layer1"
     transform="translate(207.0622,-111.95493)">
    <g
       id="g86"
       transform="matrix(0.35277777,0,0,-0.35277777,-151.83237,119.0525)">
      <path
         d="m 0,0 c -1.293,0.947 -3.045,0.938 -4.631,0.702 -4.008,-0.598 -7.825,-2.421 -10.808,-5.163 -0.33,1.734 -1.72,3.222 -3.428,3.668 -1.709,0.446 -3.668,0.31 -4.804,-1.042 2.171,3.24 4.39,6.596 5.118,10.427 0.727,3.831 -0.423,8.299 -3.748,10.337 -3.217,1.973 -7.382,1.171 -10.939,-0.09 -11.07,-3.925 -20.008,-12.272 -26.036,-22.352 0.481,4.215 -2.42,8.564 -6.496,9.74 -4.075,1.177 -9.739,-0.566 -11.578,-4.389 -6.102,2.318 -13.001,2.471 -19.2,0.428 -4.895,-1.614 -9.363,-4.543 -14.439,-5.442 -4.561,-0.808 -9.231,0.092 -13.863,0.153 -11.045,0.146 -20.659,-8.025 -31.705,-8.025 h 27.38 c 6.359,-0.484 12.706,-1.03 18.78,-2.737 19.351,-5.439 40.625,-4.799 59.887,0.949 7.217,-4.668 16.871,-5.301 24.636,-1.615 5.457,-0.57 10.913,-1.14 16.37,-1.711 1.975,-0.206 4.012,-0.408 5.916,0.156 1.905,0.565 3.667,2.093 3.877,4.068 0.116,1.089 -0.423,2.207 -1.247,2.901 0.903,0.979 1.699,2.038 2.179,3.271 C 1.988,-3.796 1.705,-1.249 0,0"
         style="fill:#ffffff;fill-opacity:1;fill-rule:nonzero;stroke:none"
         id="path88"
         inkscape:connector-curvature="0" />
    </g>
  </g>
</svg>
