<?xml version="1.0" encoding="UTF-8" standalone="no"?>
<!-- Created with Inkscape (http://www.inkscape.org/) -->

<svg
   xmlns:dc="http://purl.org/dc/elements/1.1/"
   xmlns:cc="http://creativecommons.org/ns#"
   xmlns:rdf="http://www.w3.org/1999/02/22-rdf-syntax-ns#"
   xmlns:svg="http://www.w3.org/2000/svg"
   xmlns="http://www.w3.org/2000/svg"
   xmlns:sodipodi="http://sodipodi.sourceforge.net/DTD/sodipodi-0.dtd"
   xmlns:inkscape="http://www.inkscape.org/namespaces/inkscape"
   width="266.2027mm"
   height="79.606621mm"
   viewBox="0 0 266.2027 79.606621"
   version="1.1"
   id="svg12690"
   inkscape:version="0.92.4 (33fec40, 2019-01-16)"
   sodipodi:docname="freepix-cloud14.svg">
  <defs
     id="defs12684" />
  <sodipodi:namedview
     id="base"
     pagecolor="#ffffff"
     bordercolor="#666666"
     borderopacity="1.0"
     inkscape:pageopacity="0.0"
     inkscape:pageshadow="2"
     inkscape:zoom="0.35"
     inkscape:cx="1034.4888"
     inkscape:cy="-569.5623"
     inkscape:document-units="mm"
     inkscape:current-layer="layer1"
     showgrid="false"
     inkscape:window-width="1850"
     inkscape:window-height="1016"
     inkscape:window-x="70"
     inkscape:window-y="27"
     inkscape:window-maximized="1" />
  <metadata
     id="metadata12687">
    <rdf:RDF>
      <cc:Work
         rdf:about="">
        <dc:format>image/svg+xml</dc:format>
        <dc:type
           rdf:resource="http://purl.org/dc/dcmitype/StillImage" />
        <dc:title></dc:title>
      </cc:Work>
    </rdf:RDF>
  </metadata>
  <g
     inkscape:label="Layer 1"
     inkscape:groupmode="layer"
     id="layer1"
     transform="translate(293.36326,81.469975)">
    <g
       id="g70"
       transform="matrix(0.35277777,0,0,-0.35277777,-28.31991,-11.601016)">
      <path
         d="M 0,0 C 2.837,3.843 3.928,10.027 2.916,14.595 1.34,21.708 -5.235,27.18 -12.438,28.277 -19.64,29.373 -26.01,27.33 -31.244,22.261 c 5.039,6.638 5.222,16.553 0.432,23.372 -4.791,6.82 -14.176,9.228 -22.13,6.741 1.585,5.025 0.532,10.804 -2.723,14.949 -3.255,4.144 -8.55,5.338 -13.808,4.989 6.824,6.52 13.764,13.19 18.205,21.518 4.441,8.327 6.039,18.746 1.808,27.182 -4.231,8.437 -16.409,11.809 -24.757,7.406 1.989,3.586 1.109,8.514 -1.999,11.189 -3.107,2.675 -7.565,4.503 -10.815,2.002 4.968,12.14 4.955,26.546 -1.381,38.031 -6.336,11.485 -19.331,19.381 -32.405,18.318 -13.074,-1.063 -24.243,-11.248 -25.379,-24.316 -1.294,1.953 -3.966,2.863 -6.183,2.108 -2.217,-0.756 -4.063,-1.22 -3.896,-3.557 -3.038,6.9 -10.985,10.94 -18.504,10.378 -7.518,-0.561 -14.373,-5.192 -18.704,-11.363 -4.33,-6.171 -5.125,-14.487 -5.679,-22.006 -2.75,1.614 -6.521,1.249 -8.91,-0.863 -2.389,-2.112 -3.401,-4.161 -2.137,-7.088 -2.226,2.618 -6.167,3.617 -9.372,2.375 -3.205,-1.242 -2.98,-2.802 -2.86,-6.238 -13.281,-1.905 -25.575,-9.855 -32.762,-21.186 -7.186,-11.331 -10.052,-25.805 -6.115,-38.632 -1.862,0.658 -4.137,-0.191 -5.113,-1.908 -0.976,-1.717 0.287,-5.457 1.805,-6.721 -3.031,2.19 -7.501,2.123 -10.465,-0.158 -2.963,-2.28 -5.409,-7.713 -4.068,-11.204 -1.543,4.961 -8.307,5.746 -12.863,3.249 2.026,2.762 1.937,6.884 -0.206,9.556 -2.143,2.672 -6.126,5.236 -9.262,3.859 2.595,16.648 -3.444,34.406 -15.651,46.02 -12.208,11.613 -30.245,16.761 -46.743,13.339 -5.143,-1.066 -10.23,-2.974 -14.215,-6.396 -3.986,-3.421 -9.079,-7.959 -8.807,-13.204 -3.863,1.661 -8.655,0.887 -11.799,-1.905 -3.144,-2.793 -2.667,-8.137 -1.473,-12.169 -3.231,3.366 -9.811,0.222 -10.539,-4.385 -1.405,6.378 -7.457,11.424 -13.985,11.657 -6.527,0.234 -14.263,-4.229 -16.12,-10.491 1.309,2.992 0.407,6.799 -2.105,8.887 -2.511,2.088 -6.837,2.477 -9.54,0.644 1.566,3.176 0.282,7.458 -2.773,9.249 -3.054,1.791 -7.754,1.848 -9.761,-1.069 -1.895,23.087 -22.418,42.476 -45.381,45.528 -22.963,3.053 -46.593,-8.878 -60.047,-27.736 -13.119,-18.388 -18.726,-41.264 -14.941,-63.482 -0.718,2.826 -2.776,5.313 -5.483,6.422 -3.242,1.33 -6.762,2.776 -9.348,0.412 -3.852,6.635 -12.83,9.331 -20.114,6.92 -7.283,-2.411 -12.646,-9.161 -14.539,-16.596 -1.892,-7.435 -0.362,-16.058 2.556,-23.154 -3.772,3.555 -11.074,4.303 -14.426,0.35 -8.071,7.522 -21.355,8.684 -30.609,2.677 -9.254,-6.007 -13.628,-18.103 -10.043,-28.537 -3.84,4.614 -12.668,1.794 -13.545,-4.144 -3.261,5.836 -12.036,5.978 -17.787,2.569 -5.751,-3.408 -9.62,-9.189 -14.477,-13.783 -4.857,-4.594 -11.434,-5.425 -18.119,-5.425 h 39.32 c 10.768,-5.123 23.184,-6.026 34.986,-2.991 1.766,-4.705 6.722,-7.609 11.691,-8.36 4.968,-0.751 10.014,0.27 14.935,1.287 7.945,1.642 15.123,4.902 23.068,6.544 8.856,-8.424 25.053,-9.765 33.023,-0.499 0.933,-5.094 7.209,-7.198 12.383,-6.959 5.173,0.238 10.557,1.765 15.388,-0.099 3.192,-1.232 5.671,-3.793 8.638,-5.495 5.217,-2.991 12.976,-3.495 18.257,-0.619 22.638,-7.72 48.217,-6.59 69.776,3.769 20.561,-8.84 43.416,-12.278 65.668,-9.878 8.904,0.96 19.072,3.909 22.409,12.22 4.537,-5.707 16.466,-4.24 20.429,1.881 26.229,-8.271 53.732,-12.49 81.235,-12.46 13.307,0.014 28.99,2.064 37.185,12.549 7.825,-10.217 25.224,-10.871 33.794,-1.27 3.584,-2.79 10.098,-1.151 12.018,2.966 4.28,-7.439 12.109,-12.728 20.609,-13.922 8.499,-1.194 16.363,0.511 22.527,6.483 3.971,-5.247 10.36,-8.584 16.935,-8.845 6.576,-0.262 13.209,2.556 17.585,7.471 4.56,-4.84 14.498,-3.304 16.585,3.009 16.908,-13.814 43.201,-10.6 59.67,3.735 0.117,-0.888 0.234,-1.776 0.351,-2.665 4.514,-2.58 10.283,0.473 11.128,5.603 8.47,-6.22 21.079,-6.033 29.361,0.434 2.013,1.572 3.886,3.715 3.949,6.268 C 1.631,-2.118 0.965,-0.831 0,0"
         style="fill:#ffffff;fill-opacity:1;fill-rule:nonzero;stroke:none"
         id="path72"
         inkscape:connector-curvature="0" />
    </g>
  </g>
</svg>
