<?xml version="1.0" encoding="UTF-8" standalone="no"?>
<!-- Created with Inkscape (http://www.inkscape.org/) -->

<svg
   xmlns:dc="http://purl.org/dc/elements/1.1/"
   xmlns:cc="http://creativecommons.org/ns#"
   xmlns:rdf="http://www.w3.org/1999/02/22-rdf-syntax-ns#"
   xmlns:svg="http://www.w3.org/2000/svg"
   xmlns="http://www.w3.org/2000/svg"
   xmlns:sodipodi="http://sodipodi.sourceforge.net/DTD/sodipodi-0.dtd"
   xmlns:inkscape="http://www.inkscape.org/namespaces/inkscape"
   width="50.103546mm"
   height="18.343052mm"
   viewBox="0 0 50.103546 18.343052"
   version="1.1"
   id="svg9715"
   inkscape:version="0.92.4 (33fec40, 2019-01-16)"
   sodipodi:docname="freepix-cloud9.svg">
  <defs
     id="defs9709" />
  <sodipodi:namedview
     id="base"
     pagecolor="#ffffff"
     bordercolor="#666666"
     borderopacity="1.0"
     inkscape:pageopacity="0.0"
     inkscape:pageshadow="2"
     inkscape:zoom="0.35"
     inkscape:cx="1057.541"
     inkscape:cy="-519.62168"
     inkscape:document-units="mm"
     inkscape:current-layer="layer1"
     showgrid="false"
     inkscape:window-width="1850"
     inkscape:window-height="1016"
     inkscape:window-x="70"
     inkscape:window-y="27"
     inkscape:window-maximized="1" />
  <metadata
     id="metadata9712">
    <rdf:RDF>
      <cc:Work
         rdf:about="">
        <dc:format>image/svg+xml</dc:format>
        <dc:type
           rdf:resource="http://purl.org/dc/dcmitype/StillImage" />
        <dc:title></dc:title>
      </cc:Work>
    </rdf:RDF>
  </metadata>
  <g
     inkscape:label="Layer 1"
     inkscape:groupmode="layer"
     id="layer1"
     transform="translate(299.46249,6.9929549)">
    <g
       id="g82"
       transform="matrix(0.35277777,0,0,-0.35277777,-249.75716,8.3857064)">
      <path
         d="m 0,0 c -0.369,0.273 -0.827,0.396 -1.287,0.405 1.749,3.322 2.054,7.805 0.007,10.493 -2.836,3.726 -8.214,5.884 -11.871,2.961 1.164,1.692 0.851,4.234 -0.689,5.592 -1.54,1.359 -3.583,2.138 -5.117,0.773 3.714,4.706 0.658,12.173 -4.919,14.372 -0.112,5.18 -5.349,9.638 -10.481,8.921 -4.801,-0.671 -8.65,-5.865 -8.051,-10.637 -0.476,1.503 -1.86,2.723 -3.443,2.869 -1.918,0.176 -3.78,-2.569 -4.195,-4.449 0.486,1.382 -0.306,3.082 -1.678,3.598 -1.371,0.516 -3.37,-3.011 -3.915,-4.371 -0.028,5.003 -4.831,9.202 -9.831,9.37 -5,0.168 -9.716,-3.099 -12.162,-7.463 -2.445,-4.364 -3.066,-10.903 -2.345,-15.854 -0.01,1.465 -1.471,2.748 -2.926,2.568 -1.071,-0.133 -2.097,-2.111 -2.424,-3.713 -0.218,1.062 -0.964,2.03 -2,2.376 -1.513,0.505 -3.968,-0.964 -4.486,-2.472 0.625,5.721 -5.589,10.393 -11.336,10.09 -5.747,-0.303 -10.706,-4.094 -14.7,-8.237 -5.728,-5.941 -7.298,-15.278 -23.048,-19.945 2.106,-1.276 15.557,-2.095 17.721,-0.92 3.633,-2.484 8.998,-2.507 13.087,-0.879 16.145,-4.281 33.424,-4.286 49.86,-1.313 10.656,-0.074 21.312,-0.148 31.968,-0.223 3.931,-0.027 7.955,0.72 11.862,1.16 3.684,-3.809 10.091,-4.602 14.592,-1.805 1.167,0.725 2.242,1.71 2.714,2.999 C 1.38,-2.444 1.105,-0.816 0,0"
         style="fill:#ffffff;fill-opacity:1;fill-rule:nonzero;stroke:none"
         id="path84"
         inkscape:connector-curvature="0" />
    </g>
  </g>
</svg>
