<?xml version="1.0" encoding="UTF-8" standalone="no"?>
<!-- Created with Inkscape (http://www.inkscape.org/) -->

<svg
   xmlns:dc="http://purl.org/dc/elements/1.1/"
   xmlns:cc="http://creativecommons.org/ns#"
   xmlns:rdf="http://www.w3.org/1999/02/22-rdf-syntax-ns#"
   xmlns:svg="http://www.w3.org/2000/svg"
   xmlns="http://www.w3.org/2000/svg"
   xmlns:sodipodi="http://sodipodi.sourceforge.net/DTD/sodipodi-0.dtd"
   xmlns:inkscape="http://www.inkscape.org/namespaces/inkscape"
   width="86.063995mm"
   height="27.966286mm"
   viewBox="0 0 86.063995 27.966286"
   version="1.1"
   id="svg7937"
   inkscape:version="0.92.4 (33fec40, 2019-01-16)"
   sodipodi:docname="freepix-cloud6.svg">
  <defs
     id="defs7931" />
  <sodipodi:namedview
     id="base"
     pagecolor="#ffffff"
     bordercolor="#666666"
     borderopacity="1.0"
     inkscape:pageopacity="0.0"
     inkscape:pageshadow="2"
     inkscape:zoom="0.35"
     inkscape:cx="879.78348"
     inkscape:cy="-552.86461"
     inkscape:document-units="mm"
     inkscape:current-layer="layer1"
     showgrid="false"
     inkscape:window-width="1850"
     inkscape:window-height="1016"
     inkscape:window-x="70"
     inkscape:window-y="27"
     inkscape:window-maximized="1" />
  <metadata
     id="metadata7934">
    <rdf:RDF>
      <cc:Work
         rdf:about="">
        <dc:format>image/svg+xml</dc:format>
        <dc:type
           rdf:resource="http://purl.org/dc/dcmitype/StillImage" />
        <dc:title></dc:title>
      </cc:Work>
    </rdf:RDF>
  </metadata>
  <g
     inkscape:label="Layer 1"
     inkscape:groupmode="layer"
     id="layer1"
     transform="translate(252.43081,25.411714)">
    <g
       id="g102"
       transform="matrix(0.35277777,0,0,-0.35277777,-166.42253,-4.5752184)">
      <path
         d="m 0,0 c -0.728,4.789 -5.272,8.268 -10.004,9.305 -4.731,1.036 -9.266,-0.577 -14.026,-1.472 4.034,4.037 8.14,8.174 10.651,13.299 2.512,5.125 3.184,11.508 0.288,16.426 -2.895,4.918 -9.119,7.517 -13.804,4.258 -2.356,10.346 -13.01,18.105 -23.579,17.172 -10.569,-0.933 -19.7,-10.438 -20.208,-21.036 -3.382,1.47 -7.505,1.086 -10.558,-0.982 -3.054,-2.067 -4.039,-5.772 -3.929,-9.458 -8.263,7.621 -21.689,8.924 -31.263,3.032 -9.573,-5.891 -14.26,-18.68 -11.179,-29.49 -1.445,2.502 -4.345,4.088 -7.231,3.954 -2.886,-0.134 -5.627,-1.982 -6.833,-4.607 -2.287,1.453 -4.99,1.223 -6.248,-1.178 -2.64,2.964 -7.003,3.863 -10.939,3.35 -3.936,-0.513 -7.597,-2.224 -11.254,-3.766 -23.18,-9.769 -48.533,-10.777 -73.687,-10.777 h 62.033 c 12.756,-1.599 25.512,-3.197 38.269,-4.796 4.243,-0.532 9.081,-0.891 12.258,1.973 2.356,-1.672 7.12,-1.774 8.93,0.478 4.11,-1.135 8.369,-1.607 12.607,-2.076 9.766,-1.079 20.08,-2.079 29.04,1.952 10.352,-7.659 26.346,-7.446 37.397,-0.836 2.663,-1.115 6.172,-1.74 9.044,-1.442 3.021,0.313 6.042,0.627 9.063,0.94 5.164,0.535 10.895,-2.085 15.882,-0.644 2.427,0.701 4.656,2.371 6.087,4.451 h 0.04 C -0.661,-8.608 0.629,-4.137 0,0"
         style="fill:#ffffff;fill-opacity:1;fill-rule:nonzero;stroke:none"
         id="path104"
         inkscape:connector-curvature="0" />
    </g>
  </g>
</svg>
