<?xml version="1.0" encoding="UTF-8" standalone="no"?>
<!-- Created with Inkscape (http://www.inkscape.org/) -->

<svg
   xmlns:dc="http://purl.org/dc/elements/1.1/"
   xmlns:cc="http://creativecommons.org/ns#"
   xmlns:rdf="http://www.w3.org/1999/02/22-rdf-syntax-ns#"
   xmlns:svg="http://www.w3.org/2000/svg"
   xmlns="http://www.w3.org/2000/svg"
   xmlns:sodipodi="http://sodipodi.sourceforge.net/DTD/sodipodi-0.dtd"
   xmlns:inkscape="http://www.inkscape.org/namespaces/inkscape"
   width="84.11747mm"
   height="22.978216mm"
   viewBox="0 0 84.11747 22.978216"
   version="1.1"
   id="svg10310"
   inkscape:version="0.92.4 (33fec40, 2019-01-16)"
   sodipodi:docname="freepix-cloud10.svg">
  <defs
     id="defs10304" />
  <sodipodi:namedview
     id="base"
     pagecolor="#ffffff"
     bordercolor="#666666"
     borderopacity="1.0"
     inkscape:pageopacity="0.0"
     inkscape:pageshadow="2"
     inkscape:zoom="0.35"
     inkscape:cx="350.39072"
     inkscape:cy="-88.005164"
     inkscape:document-units="mm"
     inkscape:current-layer="layer1"
     showgrid="false"
     inkscape:window-width="1850"
     inkscape:window-height="1016"
     inkscape:window-x="70"
     inkscape:window-y="27"
     inkscape:window-maximized="1" />
  <metadata
     id="metadata10307">
    <rdf:RDF>
      <cc:Work
         rdf:about="">
        <dc:format>image/svg+xml</dc:format>
        <dc:type
           rdf:resource="http://purl.org/dc/dcmitype/StillImage" />
        <dc:title></dc:title>
      </cc:Work>
    </rdf:RDF>
  </metadata>
  <g
     inkscape:label="Layer 1"
     inkscape:groupmode="layer"
     id="layer1"
     transform="translate(112.36231,-102.57042)">
    <g
       id="g98"
       transform="matrix(0.35277777,0,0,-0.35277777,-29.99293,117.83565)">
      <path
         d="m 0,0 c -3.572,1.512 -8.894,0.001 -10.049,-3.702 -1.6,1.702 -5.309,0.962 -6.359,-1.123 0.702,2.007 -0.561,4.473 -2.6,5.076 -2.039,0.603 -4.755,-0.304 -5.257,-2.37 1.181,3.234 2.073,6.626 2.026,10.068 -0.047,3.443 -1.107,6.959 -3.426,9.503 -2.32,2.544 -6.002,3.948 -9.332,3.074 -3.33,-0.873 -5.936,-3.896 -5.471,-7.307 -1.784,1.885 -4.844,2.413 -7.156,1.235 -2.313,-1.178 -3.685,-3.964 -3.208,-6.516 -0.565,0.881 -1.657,1.393 -2.695,1.263 -1.038,-0.131 -1.572,-1.033 -1.9,-2.026 -0.079,2.006 -0.38,4.076 -1.457,5.77 -1.078,1.694 -3.095,2.919 -5.068,2.549 -1.974,-0.37 -3.65,-2.341 -2.746,-4.134 -3.337,2.557 -8.045,3.197 -11.944,1.626 -3.899,-1.572 -6.772,-5.302 -7.403,-9.458 -0.069,2.119 -1.338,4.159 -3.209,5.157 -1.871,0.997 -4.332,1.362 -6.13,0.24 0.288,1.198 -0.116,2.537 -1.02,3.375 -0.903,0.838 -2.27,1.141 -3.443,0.763 0.544,2.179 -0.204,4.882 -2.042,6.174 0.891,1.808 0.661,4.114 -0.569,5.71 -1.231,1.597 -3.519,3 -5.494,2.599 0.269,3.322 -1.67,6.714 -4.669,8.167 -2.999,1.453 -7.126,0.755 -9.566,-1.515 -1.268,5.714 -7.506,9.419 -13.348,9.048 -5.841,-0.371 -11.064,-4.07 -14.636,-8.707 -3.5,-4.543 -5.37,-10.244 -3.034,-15.481 -2.482,0.901 -5.535,-1.261 -5.508,-3.901 -1.286,0.575 -3.182,-1.45 -2.677,-2.764 -3.827,1.924 -8.785,1.316 -12.034,-1.475 -3.249,-2.792 -4.328,-7.59 -3.001,-11.663 -1.574,1.786 -4.231,2.531 -6.504,1.822 -2.272,-0.71 -4.138,-3.005 -4.416,-5.369 -1.119,0.915 -2.762,1.137 -4.084,0.552 -1.322,-0.585 -2.415,-2.448 -2.491,-3.892 -2.037,8.474 -13.126,11.934 -21.347,9.039 -8.22,-2.895 -14.779,-10.398 -20.221,-17.205 h 9.582 c 13.407,-3.4 27.435,-4.342 41.173,-2.737 1.629,-1.593 4.787,-1.306 6.656,-0.003 0.811,0.566 1.469,1.383 2.399,1.719 1.612,0.583 3.295,-0.467 4.874,-1.136 3.902,-1.656 8.719,-0.891 11.917,1.892 6.705,-5.94 17.362,-7.645 24.903,-2.811 1.291,-1.415 4.783,-1.026 6.662,-0.654 1.878,0.372 3.684,1.157 5.597,1.247 2.154,0.101 4.236,-0.685 6.349,-1.112 2.113,-0.427 4.534,-0.417 6.155,1.004 6.812,-3.688 15.91,-3.407 22.798,0.136 3.577,-1.556 7.788,-1.304 11.312,0.369 1.872,-1.979 5.332,-2.395 7.471,-0.707 1.571,-1.23 4.001,-1.196 5.537,0.077 9.169,-4.802 21.377,-4.284 30.529,0.55 5.831,-3.423 13.73,-4.079 20.024,-1.609 1.136,0.446 2.305,1.137 3.182,2.007 1.028,-0.459 2.116,-0.704 3.625,-0.202 3.68,1.224 6.801,4.337 7.543,8.144 C 5.542,-5.817 3.572,-1.512 0,0"
         style="fill:#ffffff;fill-opacity:1;fill-rule:nonzero;stroke:none"
         id="path100"
         inkscape:connector-curvature="0" />
    </g>
  </g>
</svg>
