<?xml version="1.0" encoding="UTF-8" standalone="no"?>
<!-- Created with Inkscape (http://www.inkscape.org/) -->

<svg
   xmlns:dc="http://purl.org/dc/elements/1.1/"
   xmlns:cc="http://creativecommons.org/ns#"
   xmlns:rdf="http://www.w3.org/1999/02/22-rdf-syntax-ns#"
   xmlns:svg="http://www.w3.org/2000/svg"
   xmlns="http://www.w3.org/2000/svg"
   xmlns:sodipodi="http://sodipodi.sourceforge.net/DTD/sodipodi-0.dtd"
   xmlns:inkscape="http://www.inkscape.org/namespaces/inkscape"
   width="95.591896mm"
   height="30.274588mm"
   viewBox="0 0 95.591896 30.274588"
   version="1.1"
   id="svg9120"
   inkscape:version="0.92.4 (33fec40, 2019-01-16)"
   sodipodi:docname="freepix-cloud8.svg">
  <defs
     id="defs9114" />
  <sodipodi:namedview
     id="base"
     pagecolor="#ffffff"
     bordercolor="#666666"
     borderopacity="1.0"
     inkscape:pageopacity="0.0"
     inkscape:pageshadow="2"
     inkscape:zoom="0.35"
     inkscape:cx="594.93181"
     inkscape:cy="20.068954"
     inkscape:document-units="mm"
     inkscape:current-layer="layer1"
     showgrid="false"
     inkscape:window-width="1850"
     inkscape:window-height="1016"
     inkscape:window-x="70"
     inkscape:window-y="27"
     inkscape:window-maximized="1" />
  <metadata
     id="metadata9117">
    <rdf:RDF>
      <cc:Work
         rdf:about="">
        <dc:format>image/svg+xml</dc:format>
        <dc:type
           rdf:resource="http://purl.org/dc/dcmitype/StillImage" />
        <dc:title></dc:title>
      </cc:Work>
    </rdf:RDF>
  </metadata>
  <g
     inkscape:label="Layer 1"
     inkscape:groupmode="layer"
     id="layer1"
     transform="translate(177.0638,-123.86866)">
    <g
       id="g74"
       transform="matrix(0.35277777,0,0,-0.35277777,-81.507595,144.56293)">
      <path
         d="m 0,0 c -0.95,6.477 -5.948,12.447 -12.399,13.558 -5.617,0.966 -13.289,-3.099 -15.658,-8.46 0.418,3.267 -0.933,6.779 -3.603,8.746 -3.362,2.477 -8.806,2.395 -11.925,-0.381 1.944,7.708 0.533,16.39 -4.488,22.552 -5.021,6.163 -13.777,9.314 -21.364,6.943 -7.587,-2.371 -14.797,-11.773 -13.363,-19.592 -0.654,2.848 -3.361,5.09 -6.28,5.202 -2.919,0.113 -5.79,-1.914 -6.662,-4.702 -1.435,2.344 -4.666,3.393 -7.205,2.341 -1.974,-0.818 -4.22,-3.366 -4.824,-5.716 -0.225,2.084 -1.428,4.073 -3.249,5.129 -2.383,1.382 -3.572,1.673 -5.642,-0.143 0.225,5.835 0.436,11.789 -1.184,17.4 -1.62,5.611 -5.415,10.922 -10.937,12.821 -5.523,1.898 -12.015,-0.461 -13.765,-6.033 -1.363,5.57 -7.262,9.63 -12.951,8.914 -5.69,-0.716 -10.399,-6.112 -10.339,-11.845 -0.876,2.963 -4.548,4.736 -7.414,3.581 -2.866,-1.156 -5.369,-4.231 -3.945,-6.974 -11.747,2.291 -24.524,-1.609 -32.99,-10.069 -8.465,-8.46 -10.557,-21.186 -8.274,-32.935 -4.139,2.977 -9.373,0.955 -10.294,-3.746 -0.1,3.083 -4.59,5.266 -7.719,3.914 -3.493,-1.509 -4.173,-6.196 -7.092,-8.637 -1.934,-1.616 -4.352,-2.885 -6.954,-3.881 -7.007,-1.092 -13.815,-2.263 -20.348,-3.521 0.14,0.003 0.306,0.002 0.458,0.004 -0.166,-0.003 -0.322,-0.004 -0.458,-0.004 h 1.626 c 12.151,-0.184 49.134,-4.464 58.374,-7 9.695,-2.66 19.754,-0.089 28.953,3.965 2.558,-3.372 8.024,-4.01 11.29,-1.319 2.337,-2.151 7.562,-1.463 10.225,0.267 12.017,-4.391 26.441,-4.916 38.311,-0.14 5.344,-5.459 15.07,-5.752 20.733,-0.624 2.44,-3.181 7.555,-4.195 10.766,-1.794 21.348,-7.335 44.725,-6.641 65.322,2.596 3.333,-2.742 7.807,-4.05 12.092,-3.536 3.594,0.432 7.279,2.401 8.542,5.793 0.707,1.899 0.282,4.167 -0.864,5.797 C -2.197,-8.135 0.683,-4.658 0,0"
         style="fill:#ffffff;fill-opacity:1;fill-rule:nonzero;stroke:none"
         id="path76"
         inkscape:connector-curvature="0" />
    </g>
  </g>
</svg>
