<?xml version="1.0" encoding="UTF-8" standalone="no"?>
<!-- Created with Inkscape (http://www.inkscape.org/) -->

<svg
   xmlns:dc="http://purl.org/dc/elements/1.1/"
   xmlns:cc="http://creativecommons.org/ns#"
   xmlns:rdf="http://www.w3.org/1999/02/22-rdf-syntax-ns#"
   xmlns:svg="http://www.w3.org/2000/svg"
   xmlns="http://www.w3.org/2000/svg"
   xmlns:sodipodi="http://sodipodi.sourceforge.net/DTD/sodipodi-0.dtd"
   xmlns:inkscape="http://www.inkscape.org/namespaces/inkscape"
   width="78.019089mm"
   height="26.399662mm"
   viewBox="0 0 78.019089 26.399662"
   version="1.1"
   id="svg8525"
   inkscape:version="0.92.4 (33fec40, 2019-01-16)"
   sodipodi:docname="freepix-cloud7.svg">
  <defs
     id="defs8519" />
  <sodipodi:namedview
     id="base"
     pagecolor="#ffffff"
     bordercolor="#666666"
     borderopacity="1.0"
     inkscape:pageopacity="0.0"
     inkscape:pageshadow="2"
     inkscape:zoom="0.35"
     inkscape:cx="710.29481"
     inkscape:cy="-470.11087"
     inkscape:document-units="mm"
     inkscape:current-layer="layer1"
     showgrid="false"
     inkscape:window-width="1850"
     inkscape:window-height="1016"
     inkscape:window-x="70"
     inkscape:window-y="27"
     inkscape:window-maximized="1" />
  <metadata
     id="metadata8522">
    <rdf:RDF>
      <cc:Work
         rdf:about="">
        <dc:format>image/svg+xml</dc:format>
        <dc:type
           rdf:resource="http://purl.org/dc/dcmitype/StillImage" />
        <dc:title></dc:title>
      </cc:Work>
    </rdf:RDF>
  </metadata>
  <g
     inkscape:label="Layer 1"
     inkscape:groupmode="layer"
     id="layer1"
     transform="translate(207.58693,1.9498306)">
    <g
       id="g78"
       transform="matrix(0.35277777,0,0,-0.35277777,-129.64562,16.677282)">
      <path
         d="m 0,0 c -1.012,5.982 -6.031,11.074 -11.998,12.173 -5.966,1.099 -12.492,-2.255 -15.569,-7.484 1.545,3.7 -0.654,8.49 -4.466,9.731 -3.813,1.24 -8.364,-1.873 -9.292,-5.773 -3.493,2.634 -8.796,2.513 -12.166,-0.278 -3.169,-2.625 -4.387,-7.425 -2.908,-11.251 -0.621,0.959 -1.961,1.464 -3.02,0.98 -1.301,-0.596 -1.771,-2.494 -0.898,-3.628 -2.128,1.249 -4.917,-0.707 -6.385,-2.69 -1.312,3.47 -4.524,6.152 -8.172,6.824 -3.649,0.671 -7.756,-0.054 -10.217,-2.83 0.771,3.673 -0.869,7.813 -4.348,9.224 3.028,3.82 6.121,7.762 7.531,12.429 1.41,4.666 0.765,10.29 -2.854,13.555 -3.621,3.264 -9.269,2.518 -11.259,-1.932 0.592,7.058 -1.695,14.549 -6.969,19.276 -5.274,4.727 -13.671,6.064 -19.662,2.287 -5.99,-3.777 -9.283,-12.708 -4.971,-18.326 -1.898,1.95 -5.902,0.427 -6.025,-2.291 -1.609,1.733 -5.251,-0.415 -6.277,-2.545 -1.935,4.744 -7.762,7.203 -12.763,6.084 -5,-1.119 -8.986,-5.238 -10.857,-10.008 -1.872,-4.77 -2.013,-11.319 -1.117,-16.365 -1.115,2.161 -4.01,3.193 -6.241,2.226 -2.23,-0.968 -3.455,-3.786 -2.64,-6.077 -0.472,1.754 -2.339,3.014 -4.142,2.795 -1.803,-0.219 -4.429,-1.948 -4.466,-3.764 -0.252,4.485 -4.865,7.849 -9.357,7.873 -4.492,0.024 -8.638,-2.566 -11.75,-5.805 -3.113,-3.238 -5.432,-7.141 -8.165,-10.706 -2.482,-3.239 -4.603,-7.715 -8.337,-8.511 -0.39,-0.044 -0.789,-0.094 -1.176,-0.136 6.011,-3.807 27.48,-4.067 34.44,-2.592 5.852,-1.759 12.575,-1.801 18.323,0.273 2.138,-1.807 5.677,-1.7 7.646,0.29 6.653,-1.934 14.213,-1.863 20.675,0.636 25.916,-4.956 63.863,-8.894 89.321,-1.959 2.648,-2.138 6.325,-2.936 9.621,-2.087 1.491,0.384 2.899,1.081 4.418,1.331 2.023,0.333 4.083,-0.148 6.133,-0.174 2.05,-0.025 4.138,0.626 5.15,2.409 4.078,-2.734 9.463,-3.413 14.093,-1.777 2.519,0.891 4.764,2.471 6.537,4.469 C -0.676,-11.787 0.829,-4.899 0,0"
         style="fill:#ffffff;fill-opacity:1;fill-rule:nonzero;stroke:none"
         id="path80"
         inkscape:connector-curvature="0" />
    </g>
  </g>
</svg>
